HIERARCHY
ROOT Hips
{
  OFFSET 196.326 95.9168 97.7182
  CHANNELS 6 Xposition Yposition Zposition Zrotation Xrotation Yrotation
  JOINT LeftUpLeg
  {
    OFFSET 8.64259 1.95398 -2.38835
    CHANNELS 3 Zrotation Xrotation Yrotation
    JOINT LeftLeg
    {
      OFFSET 43.7702 0 0
      CHANNELS 3 Zrotation Xrotation Yrotation
      JOINT LeftFoot
      {
        OFFSET 40.6238 0 0
        CHANNELS 3 Zrotation Xrotation Yrotation
        JOINT LeftToeBase
        {
          OFFSET 12.7242 0 0
          CHANNELS 3 Zrotation Xrotation Yrotation
          End Site
          {
            OFFSET 0 0 0
          }
        }
      }
    }
  }
  JOINT RightUpLeg
  {
    OFFSET -8.2249 1.95398 -2.59336
    CHANNELS 3 Zrotation Xrotation Yrotation
    JOINT RightLeg
    {
      OFFSET 43.5653 0 0
      CHANNELS 3 Zrotation Xrotation Yrotation
      JOINT RightFoot
      {
        OFFSET 40.6238 0 0
        CHANNELS 3 Zrotation Xrotation Yrotation
        JOINT RightToeBase
        {
          OFFSET 12.7242 0 0
          CHANNELS 3 Zrotation Xrotation Yrotation
          End Site
          {
            OFFSET 0 0 0
          }
        }
      }
    }
  }
  JOINT Spine
  {
    OFFSET 0.165834 0.87714 6.61349
    CHANNELS 3 Zrotation Xrotation Yrotation
    JOINT Spine1
    {
      OFFSET 7.38963 1.71661e-005 0
      CHANNELS 3 Zrotation Xrotation Yrotation
      JOINT Spine2
      {
        OFFSET 11.9445 1.14441e-005 0
        CHANNELS 3 Zrotation Xrotation Yrotation
        JOINT Spine3
        {
          OFFSET 14.7254 4.19617e-005 0
          CHANNELS 3 Zrotation Xrotation Yrotation
          JOINT Spine4
          {
            OFFSET 10.9679 0 0
            CHANNELS 3 Zrotation Xrotation Yrotation
            JOINT RightShoulder
            {
              OFFSET 2.46616 -1.6653 3.69651
              CHANNELS 3 Zrotation Xrotation Yrotation
              JOINT RightArm
              {
                OFFSET 13.0012 0 0
                CHANNELS 3 Zrotation Xrotation Yrotation
                JOINT RightForeArm
                {
                  OFFSET 28.7848 1.52588e-005 0
                  CHANNELS 3 Zrotation Xrotation Yrotation
                  JOINT RightHand
                  {
                    OFFSET 26.5688 1.52588e-005 0
                    CHANNELS 3 Zrotation Xrotation Yrotation
                    End Site
                    {
                      OFFSET 0 0 0
                    }
                  }
                }
              }
            }
            JOINT LeftShoulder
            {
              OFFSET 2.38034 -1.29275 -3.75231
              CHANNELS 3 Zrotation Xrotation Yrotation
              JOINT LeftArm
              {
                OFFSET 16.3182 6.10351e-005 0
                CHANNELS 3 Zrotation Xrotation Yrotation
                JOINT LeftForeArm
                {
                  OFFSET 27.0901 0 0
                  CHANNELS 3 Zrotation Xrotation Yrotation
                  JOINT LeftHand
                  {
                    OFFSET 24.5451 1.52588e-005 0
                    CHANNELS 3 Zrotation Xrotation Yrotation
                    End Site
                    {
                      OFFSET 0 0 0
                    }
                  }
                }
              }
            }
            JOINT Neck
            {
              OFFSET 5.0226 -0.0266342 0
              CHANNELS 3 Zrotation Xrotation Yrotation
              JOINT Head
              {
                OFFSET 6.69363 2.86102e-005 0
                CHANNELS 3 Zrotation Xrotation Yrotation
                End Site
                {
                  OFFSET 0 0 0
                }
              }
            }
          }
        }
      }
    }
  }
}
MOTION
Frames:	12
Frame Time:	0.0416667
24.9379 90.7931 12.4758 81.8946 -52.9557 79.1352 -168.858 34.1746 85.125 -27.6121 11.0208 -5.59098 58.1315 3.22441 14.0652 49.1272 17.5572 -20.86 177.443 -0.0491924 84.5905 -43.2241 -6.03836 -7.14837 44.8982 2.87997 2.83862 50.6541 6.03843 33.2794 1.35732 7.12227 -89.0444 12.6083 3.15195 1.5409 0.940394 3.21672 1.40058 -21.6091 2.54319 2.41717 -1.59643 2.54321 2.41717 83.6514 -46.9295 -111.535 21.1158 -10.4244 -8.97739 -19.5371 -5.08833 -75.8677 -12.6382 -0.832311 2.45444 -96.5873 -42.8088 66.5102 -43.8381 4.08374 26.9639 1.10974 12.2949 -14.8529 5.80755 0.580068 5.00436 14.4495 -0.421316 -1.4199 -2.964 0.0840373 3.6241 
30.1624 91.186 16.0397 82.9798 -51.1012 80.0295 -168.781 31.7043 83.8806 -31.391 12.4189 -6.19722 61.3292 6.78247 16.3293 42.6771 11.9603 -27.4883 178.803 5.31582 84.6159 -53.7238 -0.403055 -7.07248 36.9433 3.52265 3.97539 36.5946 0.704282 18.8284 1.12019 7.12098 -89.0869 12.6144 2.66066 1.51353 0.945403 2.7247 1.39492 -21.5974 2.08287 2.24324 -1.58471 2.08287 2.24325 83.778 -47.0672 -111.288 23.5031 -11.1029 -3.70874 -17.0669 -7.48038 -69.8086 -12.8057 -0.727294 1.34675 -97.2052 -42.4806 65.4124 -43.32 4.35437 24.7839 1.93673 11.8483 -17.3682 5.27896 0.527748 4.83809 13.9367 0.0273763 -0.846522 -3.0123 0.355954 3.35097 
35.1095 92.2592 19.5102 84.2456 -48.6396 80.8076 -169.826 27.0536 82.5706 -30.9414 12.0945 -5.70223 62.2002 7.59255 16.135 39.4017 9.74535 -27.3724 178.793 12.1541 84.8591 -61.8406 7.7927 -6.13212 39.3046 1.52092 2.00472 31.4 -0.595567 18.7239 0.78281 7.18714 -89.1415 12.4855 1.96365 1.48843 0.815263 2.02725 1.40053 -21.7201 1.42561 2.00969 -1.70746 1.42562 2.00968 83.6804 -48.801 -110.824 24.2424 -12.2235 0.82151 -16.6197 -9.97151 -62.707 -11.9658 -0.590095 0.142075 -98.1882 -42.0422 63.6869 -42.3055 5.30226 20.9409 2.48999 10.1027 -21.1743 7.45178 0.630434 4.00402 13.3951 0.0500109 -1.12563 -2.87826 0.465368 3.84433 
39.9344 93.6983 23.0003 85.0177 -45.5561 82.8762 -171.251 21.8842 83.1323 -28.3527 12.4901 -4.69484 62.2414 7.84761 16.2336 43.2778 11.9328 -31.4606 178.548 18.2941 86.9396 -65.2202 10.1839 -5.00025 44.8602 0.0598291 0.517228 30.706 -0.631356 15.9636 0.423868 7.20941 -89.4032 12.4497 1.12621 1.06332 0.778875 1.17192 1.01272 -21.7549 0.754595 1.3526 -1.7423 0.754605 1.35261 84.0769 -49.7644 -109.894 25.4909 -12.9717 5.5113 -14.5921 -12.7326 -56.6073 -13.2321 -0.817908 2.00644 -98.4663 -41.7636 63.1346 -40.1101 6.13319 16.5038 3.53944 8.1404 -27.449 10.5698 0.861484 4.00127 12.6409 0.432166 -1.03067 -2.835 0.815937 4.05744 
44.7232 95.0106 26.1727 85.2722 -42.6079 84.2064 -172.807 17.0378 83.5107 -25.3144 15.8465 -3.68994 61.4586 7.21028 16.3421 44.2445 13.0813 -26.9719 178.212 23.9562 88.3826 -63.6064 10.9528 -3.86836 49.2252 -0.841466 -0.27146 35.4134 0.347281 17.0684 0.0675972 7.18974 -89.6435 12.4921 0.303982 0.676574 0.821038 0.333474 0.662535 -21.7126 0.0865976 0.73665 -1.69995 0.0866047 0.73665 83.921 -50.3928 -109.916 27.3985 -12.3917 10.6601 -12.0665 -14.2722 -49.2841 -11.6245 -0.670425 1.09532 -99.0064 -41.7634 62.281 -37.1977 5.72916 12.6652 4.3328 4.67011 -35.3185 13.1815 1.03324 3.84391 11.4952 0.724933 -0.715391 -2.76065 1.03448 4.46854 
49.2218 96.1337 29.6392 85.4646 -39.2601 84.7782 -173.929 11.5667 83.8969 -21.0623 17.7293 -2.73375 60.2746 5.90762 14.8477 46.3417 15.0316 -23.5385 177.971 27.5061 88.9744 -56.9104 10.7254 -2.65803 55.2501 -1.60698 -0.871539 39.3607 1.1584 17.0124 -0.331992 7.18339 -89.7377 12.5084 -0.534642 0.585729 0.837439 -0.508353 0.608691 -21.698 -0.685955 0.397971 -1.68539 -0.685962 0.397965 83.8545 -51.3094 -109.712 28.7284 -10.6616 15.1046 -9.52517 -15.8651 -42.2678 -8.25416 -0.569753 1.75355 -98.7968 -41.25 62.3982 -34.0839 5.45584 8.07289 4.20643 1.68268 -42.8792 16.0277 1.21983 3.70211 10.3048 0.858227 -1.77849 -2.27412 1.46047 5.51756 
53.4874 96.5351 33.1859 85.2071 -36.0565 84.9622 -173.877 7.10355 84.6933 -17.9367 19.509 -2.6303 59.2677 4.53692 13.2657 50.252 18.6924 -19.6002 178.072 29.4396 88.9548 -45.267 12.8389 -1.17729 59.1741 -2.10415 -1.18157 40.4192 1.48865 19.2625 -0.667978 7.14438 -89.808 12.5885 -1.23547 0.527672 0.918047 -1.21105 0.581535 -21.6217 -1.33695 0.131904 -1.60907 -1.33692 0.131904 83.7257 -52.4143 -109.54 29.3267 -8.64354 19.5164 -8.03183 -17.1755 -36.6179 -5.15056 -0.478963 2.82231 -99.0213 -40.4358 61.695 -29.8946 5.62028 3.11211 6.42511 2.65487 -49.4712 16.0985 1.13574 3.16098 8.88176 0.814256 -1.95058 -0.958464 1.48998 5.34828 
57.7981 96.0779 36.9437 84.4648 -34.647 83.7518 -173.83 3.47173 84.5553 -16.5328 19.2623 -2.54243 60.2226 5.21963 13.6675 54.1574 20.8461 -23.0251 179.149 29.6785 87.8066 -29.5631 9.98468 -0.598809 63.2668 -2.5607 -1.44283 42.9942 1.84068 15.582 -0.836098 7.10256 -89.7552 12.6742 -1.54377 0.670923 1.00398 -1.51273 0.738219 -21.5383 -1.67403 0.175828 -1.52568 -1.674 0.175825 83.4251 -53.344 -109.676 29.611 -6.46461 23.6578 -7.71182 -18.1223 -32.8438 -1.04761 -0.270244 3.43562 -99.2647 -39.5492 60.9172 -26.2827 3.55696 -0.965298 8.15715 1.99829 -56.9794 17.1173 1.39449 4.26489 8.11868 0.635 -2.46043 0.472935 1.49442 5.62688 
62.2161 95.0139 40.8065 83.5757 -32.6 83.2535 -173.463 1.02279 85.3888 -17.4185 22.3119 -2.41295 61.2215 7.59311 16.8306 59.9542 23.6621 -27.4103 -179.148 29.035 86.7453 -12.4339 8.64671 -0.951213 64.34 -2.46746 -1.38298 49.4802 2.66706 11.6321 -1.10681 7.06915 -89.8088 12.7435 -2.10657 0.632241 1.07405 -2.07669 0.724374 -21.4748 -2.19916 -0.0303929 -1.46217 -2.19916 -0.0304012 84.1535 -52.7749 -108.799 30.3275 -5.62661 26.9579 -7.42677 -19.487 -30.1674 1.02313 -0.159713 3.41898 -98.783 -38.5387 61.2518 -23.2897 1.37838 -5.43351 9.8472 1.97273 -61.9821 17.8146 1.44566 4.24608 9.00899 0.68321 -3.01991 0.305105 1.68385 5.81189 
66.5533 93.8272 44.7907 83.9976 -30.5758 82.9549 -173.241 -2.16534 86.2564 -18.6611 26.1077 -2.00449 60.8744 7.90811 17.0343 63.0904 27.0185 -23.9008 -177.984 30.2203 85.6263 -5.61628 13.5969 -1.68109 66.4791 -2.18587 -1.17407 50.0462 3.87252 20.0888 -1.43888 7.12229 -89.7901 12.6416 -2.75788 0.742859 0.973321 -2.72251 0.863598 -21.5853 -2.85356 -0.121013 -1.57268 -2.85354 -0.121001 84.6855 -52.9929 -107.956 29.8803 -5.05824 30.0912 -8.34551 -20.2175 -30.3692 2.76454 -0.0527648 4.03134 -98.1177 -37.7807 62.0102 -20.844 -0.844375 -8.56494 10.8748 1.66039 -66.3523 18.8207 1.57993 4.54174 10.1075 0.632613 -3.61675 -0.732212 1.76579 6.19258 
71.0919 92.2691 49.1902 85.4461 -29.4591 83.6237 -173.161 -4.6968 88.062 -23.2412 30.3717 -1.00592 58.9727 5.38912 14.9316 66.8301 32.3818 -17.5597 -179.196 32.0679 86.3507 -10.0393 15.9125 -0.0303079 67.5757 -2.04121 -1.08439 51.6358 4.01841 18.5087 -1.67635 7.24652 -89.7655 12.3971 -3.21939 0.835367 0.729781 -3.17955 0.976375 -21.8375 -3.32147 -0.171879 -1.82482 -3.32149 -0.171892 84.9891 -53.3727 -107.4 29.2859 -4.70844 31.7101 -8.57375 -20.589 -29.9285 3.83169 0.0243314 4.36633 -97.626 -36.6491 62.3299 -19.7033 -2.75676 -9.11717 9.93885 0.567582 -69.8123 21.6817 1.85598 4.74785 11.0519 0.731167 -5.01062 -2.24609 2.18992 7.56609 
76.3142 90.9089 53.8157 86.6783 -30.9434 85.7635 -173.126 -6.922 90.5442 -28.3336 30.7571 0.429771 55.9399 1.67318 11.3081 76.7301 40.516 -17.1523 -179.631 34.3897 88.8888 -21.6168 14.1726 0.559854 63.8274 -1.25224 -0.638123 43.967 2.37157 19.6131 -1.64768 7.31474 -90.0008 12.2564 -3.2751 0.36641 0.5895 -3.25578 0.510345 -21.9783 -3.23365 -0.635895 -1.96562 -3.23365 -0.635899 84.9169 -53.3319 -107.517 27.9416 -3.9129 32.7604 -8.83767 -20.6868 -28.9032 4.07561 0.0272155 4.16085 -97.7341 -37.3432 62.4532 -19.5541 -4.58967 -6.81373 10.4239 0.329067 -72.7503 22.4224 2.1692 5.88244 11.6258 1.68048 -3.95451 -3.29869 2.82106 7.68603 
